<svg width="50" height="38" viewBox="0 0 50 38" fill="none" xmlns="http://www.w3.org/2000/svg">
<path d="M49 20.6616C49 16.6722 45.8141 13.4266 41.8979 13.4266C41.3928 13.4266 40.9022 13.4882 40.4277 13.5928C37.755 9.22231 33.2139 6.08712 27.9049 5.27704C28.0946 4.88687 28.2037 4.45157 28.2037 3.9908C28.2037 2.34145 26.8463 1 25.1763 1C23.5067 1 22.1488 2.34145 22.1488 3.9908C22.1488 4.45157 22.2579 4.88687 22.4471 5.27704C13.9199 6.57815 7.36969 13.8778 7.37023 22.6602C7.37023 22.794 7.37507 22.9293 7.37937 23.0642C6.22622 21.6288 6.18753 18.7691 6.15744 16.4052C6.12789 14.0881 6.10478 12.2577 5.19774 11.2618C3.46749 9.36245 1.74476 9.56736 1 9.98885L2.06609 11.8325C2.07093 11.8298 2.67706 11.67 3.59968 12.6829C3.96561 13.0842 3.99033 15.0197 4.00806 16.4323C4.04944 19.688 4.10048 23.7399 6.87802 25.4387C7.1612 25.6117 7.45352 25.7561 7.75013 25.8819C8.91295 31.0471 12.6389 36.2929 17.216 36.9358C17.5384 36.9804 18.0527 37 18.9344 37C19.5793 37 20.3702 36.9888 21.266 36.9782C22.4234 36.9628 23.7577 36.9453 25.1763 36.9453C26.5954 36.9453 27.9291 36.9634 29.0865 36.9782C29.9817 36.9894 30.7738 37 31.4181 37C32.2998 37 32.8141 36.9804 33.1365 36.9358C37.1182 36.3763 40.4584 32.3333 42.0253 27.8901C45.8823 27.82 49 24.6073 49 20.6616ZM25.1763 3.12392C25.6599 3.12392 26.0543 3.51303 26.0543 3.99133C26.0543 4.46962 25.6604 4.85873 25.1763 4.85873C24.6921 4.85873 24.2982 4.46962 24.2982 3.99133C24.2982 3.51303 24.6921 3.12392 25.1763 3.12392ZM32.8345 34.8331C32.6287 34.8628 32.1521 34.8766 31.4181 34.8766C30.7813 34.8766 29.9995 34.866 29.1155 34.8548C27.949 34.84 26.6051 34.8219 25.1763 34.8219C23.7469 34.8219 22.403 34.8394 21.2375 34.8548C20.3525 34.866 19.5712 34.8766 18.9344 34.8766C18.2004 34.8766 17.7238 34.8628 17.518 34.8331C13.8952 34.3251 9.51961 28.7814 9.51961 22.6607C9.51961 14.1327 16.5433 7.19394 25.1763 7.19394C33.8092 7.19394 40.8329 14.1327 40.8329 22.6613C40.8329 28.7819 36.4573 34.3251 32.8345 34.8331ZM42.6411 25.7099C42.8624 24.6758 42.9823 23.6465 42.9823 22.6613C42.9823 20.1392 42.4379 17.7419 41.4664 15.5712C41.6093 15.5585 41.7523 15.55 41.8984 15.55C44.6292 15.55 46.8512 17.8433 46.8512 20.6616C46.8506 23.2192 45.0199 25.3378 42.6411 25.7099Z" fill="#2B3E00" stroke="white" stroke-width="0.5"/>
</svg>
