<svg width="107" height="107" viewBox="0 0 107 107" fill="none" xmlns="http://www.w3.org/2000/svg">
<path fill-rule="evenodd" clip-rule="evenodd" d="M51.2528 28.6602L51.2551 28.6625L64.7874 42.1948L64.79 42.1974C65.1573 42.57 65.3638 43.0699 65.3638 43.5892V104.533C65.3638 105.614 64.4853 106.493 63.4038 106.493H2.46009C1.37853 106.493 0.5 105.614 0.5 104.533V43.5892C0.5 43.0698 0.706618 42.5698 1.07408 42.1972L1.07645 42.1948L14.6087 28.6625L14.6111 28.6602C14.9837 28.2927 15.4837 28.0861 16.0031 28.0861H31.166L31.3083 26.8195C32.936 12.3252 45.1219 1 60.018 1C66.6461 1 73.1282 3.292 78.278 7.45424C86.6575 14.2331 89.8384 26.3749 86.004 37.7224C83.4517 45.2757 80.422 59.988 88.3485 73.6849L88.6174 74.1496L99.4082 77.7963C100.027 78.0039 100.504 78.5093 100.671 79.1398L105.933 98.7723C106.211 99.8163 105.589 100.894 104.547 101.171L84.9205 106.426L84.9142 106.428C84.7505 106.473 84.5865 106.493 84.409 106.493C83.5411 106.493 82.7544 105.916 82.5242 105.038L77.2676 85.407L77.2657 85.3999C77.0956 84.7777 77.2541 84.0995 77.6859 83.6088L84.8753 75.4285L84.4042 74.5555C76.5204 59.946 79.5341 44.6175 82.2925 36.4619C85.5546 26.8182 83.049 16.3543 75.8114 10.4984C71.359 6.9006 65.754 4.92018 60.018 4.92018C47.3847 4.92018 37.0097 14.3181 35.2521 26.4561L35.0161 28.0861H49.8607C50.3801 28.0861 50.8801 28.2927 51.2528 28.6602ZM61.4437 44.4004L49.0496 32.0063H16.8143L4.42018 44.4004V102.573H61.4437V44.4004ZM81.3176 85.4144L85.7979 102.134L101.635 97.8964L97.1543 81.1755L87.8185 78.0198L81.3176 85.4144Z" fill="#2B3E00"/>
<path d="M51.2551 28.6625L51.6087 28.309L51.6067 28.307L51.2551 28.6625ZM51.2528 28.6602L51.6043 28.3046L51.6039 28.3042L51.2528 28.6602ZM64.7874 42.1948L65.1435 41.8438L65.141 41.8412L64.7874 42.1948ZM64.79 42.1974L64.4339 42.5484L64.4339 42.5484L64.79 42.1974ZM1.07408 42.1972L0.718136 41.846L0.718056 41.8461L1.07408 42.1972ZM1.07645 42.1948L0.722887 41.8412L0.720503 41.8436L1.07645 42.1948ZM14.6087 28.6625L14.2574 28.3067L14.2552 28.309L14.6087 28.6625ZM14.6111 28.6602L14.26 28.3042L14.2597 28.3044L14.6111 28.6602ZM31.166 28.0861V28.5861H31.613L31.6629 28.1419L31.166 28.0861ZM31.3083 26.8195L30.8114 26.7637L31.3083 26.8195ZM78.278 7.45424L78.5924 7.06551L78.5923 7.06537L78.278 7.45424ZM86.004 37.7224L85.5303 37.5623L86.004 37.7224ZM88.3485 73.6849L87.9157 73.9354L88.3485 73.6849ZM88.6174 74.1496L88.1847 74.4L88.279 74.563L88.4573 74.6233L88.6174 74.1496ZM99.4082 77.7963L99.2481 78.27L99.2492 78.2703L99.4082 77.7963ZM100.671 79.1398L100.188 79.2681L100.188 79.2692L100.671 79.1398ZM105.933 98.7723L106.416 98.6434L106.416 98.6429L105.933 98.7723ZM104.547 101.171L104.418 100.688L104.417 100.688L104.547 101.171ZM84.9206 106.426L84.7912 105.943L84.7887 105.944L84.9206 106.426ZM84.9142 106.428L85.0457 106.91L85.046 106.91L84.9142 106.428ZM82.5242 105.038L83.0079 104.911L83.0072 104.909L82.5242 105.038ZM77.2676 85.407L77.7506 85.2777L77.7499 85.275L77.2676 85.407ZM77.2657 85.3999L76.7834 85.5317L76.7834 85.5319L77.2657 85.3999ZM77.6859 83.6088L78.0612 83.9391L78.0614 83.9389L77.6859 83.6088ZM84.8753 75.4285L85.2509 75.7586L85.4805 75.4973L85.3153 75.1911L84.8753 75.4285ZM84.4042 74.5555L83.9641 74.7929L84.4042 74.5555ZM82.2925 36.4619L81.8189 36.3017V36.3017L82.2925 36.4619ZM75.8114 10.4984L76.1259 10.1097L76.1256 10.1095L75.8114 10.4984ZM35.2521 26.4561L34.7572 26.3845L35.2521 26.4561ZM35.0161 28.0861L34.5212 28.0144L34.4384 28.5861H35.0161V28.0861ZM49.0496 32.0063L49.4031 31.6527L49.2567 31.5063H49.0496V32.0063ZM61.4437 44.4004H61.9437V44.1933L61.7972 44.0468L61.4437 44.4004ZM16.8143 32.0063V31.5063H16.6072L16.4607 31.6527L16.8143 32.0063ZM4.42018 44.4004L4.06662 44.0468L3.92018 44.1933V44.4004H4.42018ZM4.42018 102.573H3.92018V103.073H4.42018V102.573ZM61.4437 102.573V103.073H61.9437V102.573H61.4437ZM85.7979 102.134L85.315 102.264L85.4443 102.747L85.9272 102.617L85.7979 102.134ZM81.3176 85.4144L80.9421 85.0843L80.7653 85.2853L80.8346 85.5438L81.3176 85.4144ZM101.635 97.8964L101.764 98.3794L102.247 98.2501L102.118 97.767L101.635 97.8964ZM97.1543 81.1755L97.6373 81.0461L97.568 80.7875L97.3144 80.7018L97.1543 81.1755ZM87.8186 78.0198L87.9787 77.5462L87.663 77.4395L87.443 77.6897L87.8186 78.0198ZM51.6067 28.307L51.6043 28.3046L50.9012 29.0158L50.9036 29.0181L51.6067 28.307ZM65.141 41.8412L51.6087 28.309L50.9016 29.0161L64.4339 42.5483L65.141 41.8412ZM65.1461 41.8465L65.1435 41.8438L64.4313 42.5457L64.4339 42.5484L65.1461 41.8465ZM65.8638 43.5892C65.8638 42.937 65.6045 42.3115 65.1461 41.8464L64.4339 42.5484C64.7101 42.8286 64.8638 43.2028 64.8638 43.5892H65.8638ZM65.8638 104.533V43.5892H64.8638V104.533H65.8638ZM63.4038 106.993C64.7615 106.993 65.8638 105.891 65.8638 104.533H64.8638C64.8638 105.338 64.2092 105.993 63.4038 105.993V106.993ZM2.46009 106.993H63.4038V105.993H2.46009V106.993ZM0 104.533C0 105.891 1.10238 106.993 2.46009 106.993V105.993C1.65467 105.993 1 105.338 1 104.533H0ZM0 43.5892V104.533H1V43.5892H0ZM0.718056 41.8461C0.259434 42.3112 0 42.9369 0 43.5892H1C1 43.2027 1.1538 42.8285 1.43011 42.5482L0.718056 41.8461ZM0.720503 41.8436L0.718136 41.846L1.43003 42.5483L1.43239 42.5459L0.720503 41.8436ZM14.2552 28.309L0.722895 41.8412L1.43 42.5483L14.9623 29.0161L14.2552 28.309ZM14.2597 28.3044L14.2574 28.3068L14.96 29.0183L14.9624 29.016L14.2597 28.3044ZM16.0031 27.5861C15.3508 27.5861 14.7251 27.8455 14.26 28.3042L14.9621 29.0162C15.2424 28.7399 15.6167 28.5861 16.0031 28.5861V27.5861ZM31.166 27.5861H16.0031V28.5861H31.166V27.5861ZM30.8114 26.7637L30.6692 28.0303L31.6629 28.1419L31.8052 26.8753L30.8114 26.7637ZM60.018 0.5C44.8603 0.5 32.4667 12.0235 30.8114 26.7637L31.8052 26.8753C33.4052 12.6269 45.3834 1.5 60.018 1.5V0.5ZM78.5923 7.06537C73.3535 2.83119 66.7605 0.5 60.018 0.5V1.5C66.5318 1.5 72.9029 3.75282 77.9637 7.84311L78.5923 7.06537ZM86.4777 37.8824C90.3709 26.3608 87.1536 13.9913 78.5924 7.06551L77.9635 7.84296C86.1614 14.4749 89.3058 26.3889 85.5303 37.5623L86.4777 37.8824ZM88.7813 73.4345C80.963 59.9246 83.9418 45.3873 86.4777 37.8824L85.5303 37.5623C82.9616 45.1642 79.8811 60.0514 87.9157 73.9354L88.7813 73.4345ZM89.0502 73.8991L88.7813 73.4345L87.9157 73.9354L88.1847 74.4L89.0502 73.8991ZM99.5683 77.3226L88.7775 73.6759L88.4573 74.6233L99.2481 78.27L99.5683 77.3226ZM101.154 79.0115C100.943 78.2175 100.344 77.5829 99.5672 77.3222L99.2492 78.2703C99.7099 78.4249 100.064 78.801 100.188 79.2681L101.154 79.0115ZM106.416 98.6429L101.154 79.0103L100.188 79.2692L105.45 98.9018L106.416 98.6429ZM104.675 101.654C105.986 101.306 106.766 99.9532 106.416 98.6434L105.45 98.9013C105.657 99.6793 105.193 100.482 104.418 100.688L104.675 101.654ZM85.0499 106.909L104.676 101.654L104.417 100.688L84.7912 105.943L85.0499 106.909ZM85.046 106.91L85.0524 106.909L84.7887 105.944L84.7823 105.946L85.046 106.91ZM84.409 106.993C84.6264 106.993 84.835 106.968 85.0457 106.91L84.7826 105.946C84.666 105.978 84.5466 105.993 84.409 105.993V106.993ZM82.0406 105.165C82.3299 106.268 83.3197 106.993 84.409 106.993V105.993C83.7625 105.993 83.1789 105.564 83.0079 104.911L82.0406 105.165ZM76.7846 85.5363L82.0412 105.167L83.0072 104.909L77.7506 85.2777L76.7846 85.5363ZM76.7834 85.5319L76.7854 85.539L77.7499 85.275L77.7479 85.2679L76.7834 85.5319ZM77.3105 83.2785C76.769 83.8938 76.5684 84.7453 76.7834 85.5317L77.748 85.2681C77.6228 84.8101 77.7392 84.3051 78.0612 83.9391L77.3105 83.2785ZM84.4997 75.0984L77.3103 83.2787L78.0614 83.9389L85.2509 75.7586L84.4997 75.0984ZM83.9641 74.7929L84.4353 75.666L85.3153 75.1911L84.8442 74.318L83.9641 74.7929ZM81.8189 36.3017C79.0423 44.511 75.9836 60.0042 83.9641 74.7929L84.8442 74.318C77.0572 59.8878 80.0259 44.7239 82.7661 36.6221L81.8189 36.3017ZM75.4969 10.8871C82.5471 16.5914 85.0247 26.8243 81.8189 36.3017L82.7661 36.6221C86.0845 26.8121 83.5509 16.1172 76.1259 10.1097L75.4969 10.8871ZM60.018 5.42018C65.6399 5.42018 71.1338 7.3615 75.4971 10.8873L76.1256 10.1095C71.5841 6.43969 65.8682 4.42018 60.018 4.42018V5.42018ZM35.7469 26.5278C37.4699 14.6283 47.6405 5.42018 60.018 5.42018V4.42018C47.1289 4.42018 36.5494 14.0078 34.7572 26.3845L35.7469 26.5278ZM35.5109 28.1577L35.7469 26.5278L34.7572 26.3845L34.5212 28.0144L35.5109 28.1577ZM49.8607 27.5861H35.0161V28.5861H49.8607V27.5861ZM51.6039 28.3042C51.1387 27.8455 50.5131 27.5861 49.8607 27.5861V28.5861C50.2472 28.5861 50.6215 28.7399 50.9017 29.0162L51.6039 28.3042ZM48.696 32.3598L61.0901 44.7539L61.7972 44.0468L49.4031 31.6527L48.696 32.3598ZM16.8143 32.5063H49.0496V31.5063H16.8143V32.5063ZM4.77373 44.7539L17.1679 32.3598L16.4607 31.6527L4.06662 44.0468L4.77373 44.7539ZM4.92018 102.573V44.4004H3.92018V102.573H4.92018ZM61.4437 102.073H4.42018V103.073H61.4437V102.073ZM60.9437 44.4004V102.573H61.9437V44.4004H60.9437ZM86.2809 102.005L81.8005 85.285L80.8346 85.5438L85.315 102.264L86.2809 102.005ZM101.506 97.4134L85.6687 101.651L85.9272 102.617L101.764 98.3794L101.506 97.4134ZM96.6714 81.3049L101.152 98.0258L102.118 97.767L97.6373 81.0461L96.6714 81.3049ZM87.6584 78.4935L96.9942 81.6491L97.3144 80.7018L87.9787 77.5462L87.6584 78.4935ZM81.6931 85.7445L88.1941 78.35L87.443 77.6897L80.9421 85.0843L81.6931 85.7445ZM87.5147 37.7051L86.164 37.2487L85.8439 38.1961L87.1946 38.6525L87.5147 37.7051Z" fill="white"/>
<path fill-rule="evenodd" clip-rule="evenodd" d="M34.1918 79.5292L35.3722 81.7L36.6607 79.5916C39.399 75.1107 44.2692 72.1006 49.8608 72.1006C50.9424 72.1006 51.8209 72.9791 51.8209 74.0607V77.4465C51.8209 85.9902 44.8615 92.9496 36.3177 92.9496H36.2974C27.3624 92.9496 19.464 87.2607 16.6449 78.7907L14.1459 71.3004L14.1433 71.2928C13.9409 70.6972 14.0416 70.0415 14.4093 69.533L14.4123 69.5288C14.7794 69.0171 15.3696 68.7148 16.0032 68.7148C23.7067 68.7148 30.6114 72.9452 34.1918 79.5292ZM18.7157 72.6001L20.3587 77.5439C22.0533 82.6353 26.0134 86.4838 30.8886 88.141L33.6052 89.0644L31.9621 84.1198C30.2674 79.0284 26.3075 75.1806 21.4323 73.5235L18.7157 72.6001ZM38.3005 86.9333L38.1779 89.0798L40.2029 88.3574C44.4855 86.8295 47.6143 82.8491 47.8848 78.1101L48.0074 75.9636L45.9824 76.686C41.6998 78.2139 38.571 82.1943 38.3005 86.9333Z" fill="#2B3E00"/>
<path d="M35.3722 81.7L34.933 81.9389L35.347 82.7002L35.7989 81.9608L35.3722 81.7ZM34.1918 79.5292L34.631 79.2904L34.1918 79.5292ZM36.6607 79.5916L36.2341 79.3309L36.6607 79.5916ZM16.6449 78.7907L17.1193 78.6328L17.1192 78.6324L16.6449 78.7907ZM14.1459 71.3004L14.6202 71.1422L14.6193 71.1395L14.1459 71.3004ZM14.1433 71.2928L14.6167 71.1319L14.6167 71.1319L14.1433 71.2928ZM14.4093 69.533L14.8144 69.826L14.8155 69.8245L14.4093 69.533ZM14.4123 69.5288L14.006 69.2373L14.006 69.2373L14.4123 69.5288ZM20.3587 77.5439L19.8842 77.7016L19.8842 77.7018L20.3587 77.5439ZM18.7157 72.6001L18.8766 72.1267L17.9239 71.8028L18.2412 72.7577L18.7157 72.6001ZM30.8886 88.141L30.7277 88.6144L30.8886 88.141ZM33.6052 89.0644L33.4443 89.5378L34.397 89.8616L34.0797 88.9067L33.6052 89.0644ZM31.9621 84.1198L32.4365 83.9622L32.4365 83.9619L31.9621 84.1198ZM21.4323 73.5235L21.2714 73.9969H21.2714L21.4323 73.5235ZM38.1779 89.0798L37.6787 89.0513L37.6357 89.8041L38.3459 89.5507L38.1779 89.0798ZM38.3005 86.9333L37.8013 86.9048L38.3005 86.9333ZM40.2029 88.3574L40.0349 87.8865L40.2029 88.3574ZM47.8848 78.1101L48.384 78.1386L47.8848 78.1101ZM48.0074 75.9636L48.5066 75.9921L48.5496 75.2393L47.8394 75.4927L48.0074 75.9636ZM45.9824 76.686L45.8144 76.2151L45.9824 76.686ZM35.8115 81.4612L34.631 79.2904L33.7525 79.7681L34.933 81.9389L35.8115 81.4612ZM36.2341 79.3309L34.9456 81.4393L35.7989 81.9608L37.0874 79.8523L36.2341 79.3309ZM49.8608 71.6006C44.0835 71.6006 39.057 74.7115 36.2341 79.3309L37.0874 79.8523C39.741 75.51 44.4549 72.6006 49.8608 72.6006V71.6006ZM52.3209 74.0607C52.3209 72.703 51.2185 71.6006 49.8608 71.6006V72.6006C50.6662 72.6006 51.3209 73.2553 51.3209 74.0607H52.3209ZM52.3209 77.4465V74.0607H51.3209V77.4465H52.3209ZM36.3177 93.4496C45.1377 93.4496 52.3209 86.2664 52.3209 77.4465H51.3209C51.3209 85.7141 44.5854 92.4496 36.3177 92.4496V93.4496ZM36.2974 93.4496H36.3177V92.4496H36.2974V93.4496ZM16.1705 78.9486C19.0577 87.6232 27.1475 93.4496 36.2974 93.4496V92.4496C27.5773 92.4496 19.8703 86.8982 17.1193 78.6328L16.1705 78.9486ZM13.6716 71.4586L16.1706 78.9489L17.1192 78.6324L14.6202 71.1422L13.6716 71.4586ZM13.6699 71.4537L13.6725 71.4613L14.6193 71.1395L14.6167 71.1319L13.6699 71.4537ZM14.0041 69.24C13.5421 69.879 13.415 70.7037 13.6699 71.4537L14.6167 71.1319C14.4668 70.6907 14.5411 70.2041 14.8144 69.826L14.0041 69.24ZM14.006 69.2373L14.003 69.2415L14.8155 69.8245L14.8185 69.8203L14.006 69.2373ZM16.0032 68.2148C15.2094 68.2148 14.4676 68.594 14.006 69.2373L14.8185 69.8203C15.0913 69.4402 15.5298 69.2148 16.0032 69.2148V68.2148ZM34.631 79.2904C30.9645 72.548 23.8928 68.2148 16.0032 68.2148V69.2148C23.5206 69.2148 30.2583 73.3425 33.7525 79.7681L34.631 79.2904ZM20.8331 77.3863L19.1902 72.4424L18.2412 72.7577L19.8842 77.7016L20.8331 77.3863ZM31.0495 87.6676C26.3191 86.0597 22.4772 82.3257 20.8331 77.386L19.8842 77.7018C21.6294 82.945 25.7078 86.908 30.7277 88.6144L31.0495 87.6676ZM33.7661 88.591L31.0495 87.6676L30.7277 88.6144L33.4443 89.5378L33.7661 88.591ZM31.4876 84.2775L33.1307 89.222L34.0797 88.9067L32.4365 83.9622L31.4876 84.2775ZM21.2714 73.9969C26.0018 75.6048 29.8435 79.3381 31.4876 84.2778L32.4365 83.9619C30.6913 78.7188 26.6132 74.7564 21.5932 73.0501L21.2714 73.9969ZM18.5548 73.0735L21.2714 73.9969L21.5932 73.0501L18.8766 72.1267L18.5548 73.0735ZM38.6771 89.1083L38.7997 86.9618L37.8013 86.9048L37.6787 89.0513L38.6771 89.1083ZM40.0349 87.8865L38.0099 88.6089L38.3459 89.5507L40.3709 88.8283L40.0349 87.8865ZM47.3857 78.0816C47.1269 82.6142 44.1336 86.4242 40.0349 87.8865L40.3709 88.8283C44.8373 87.2349 48.1017 83.0839 48.384 78.1386L47.3857 78.0816ZM47.5082 75.9351L47.3857 78.0816L48.384 78.1386L48.5066 75.9921L47.5082 75.9351ZM46.1504 77.157L48.1754 76.4345L47.8394 75.4927L45.8144 76.2151L46.1504 77.157ZM38.7997 86.9618C39.0585 82.4292 42.0517 78.6192 46.1504 77.157L45.8144 76.2151C41.348 77.8085 38.0836 81.9595 37.8013 86.9048L38.7997 86.9618Z" fill="white"/>
<path fill-rule="evenodd" clip-rule="evenodd" d="M29.5462 41.6287H36.3177C37.3993 41.6287 38.2778 42.5072 38.2778 43.5888C38.2778 44.6703 37.3993 45.5488 36.3177 45.5488H29.5462C28.4646 45.5488 27.5861 44.6703 27.5861 43.5888C27.5861 42.5072 28.4646 41.6287 29.5462 41.6287Z" fill="#2B3E00"/>
<path d="M36.3177 41.1287H29.5462V42.1287H36.3177V41.1287ZM38.7778 43.5888C38.7778 42.231 37.6754 41.1287 36.3177 41.1287V42.1287C37.1231 42.1287 37.7778 42.7833 37.7778 43.5888H38.7778ZM36.3177 46.0488C37.6754 46.0488 38.7778 44.9465 38.7778 43.5888H37.7778C37.7778 44.3942 37.1231 45.0488 36.3177 45.0488V46.0488ZM29.5462 46.0488H36.3177V45.0488H29.5462V46.0488ZM27.0861 43.5888C27.0861 44.9465 28.1885 46.0488 29.5462 46.0488V45.0488C28.7408 45.0488 28.0861 44.3942 28.0861 43.5888H27.0861ZM29.5462 41.1287C28.1885 41.1287 27.0861 42.231 27.0861 43.5888H28.0861C28.0861 42.7833 28.7408 42.1287 29.5462 42.1287V41.1287Z" fill="white"/>
</svg>
