<svg width="109" height="82" viewBox="0 0 109 82" fill="none" xmlns="http://www.w3.org/2000/svg">
<path d="M108 44.6923C108 35.8272 100.964 28.6147 92.3162 28.6147C91.2008 28.6147 90.1174 28.7516 89.0696 28.984C83.1672 19.2718 73.139 12.3047 61.415 10.5045C61.8339 9.63749 62.0747 8.67016 62.0747 7.64622C62.0747 3.98101 59.0773 1 55.3892 1C51.7023 1 48.7037 3.98101 48.7037 7.64622C48.7037 8.67016 48.9446 9.63749 49.3623 10.5045C30.5315 13.3959 16.0664 29.6174 16.0676 49.1338C16.0676 49.431 16.0783 49.7319 16.0878 50.0315C13.5412 46.8417 13.4558 40.4868 13.3894 35.2338C13.3241 30.0846 13.2731 26.0171 11.27 23.8041C7.44904 19.5832 3.64468 20.0386 2 20.9752L4.35429 25.0722C4.36497 25.0663 5.7035 24.7112 7.74095 26.962C8.54906 27.8538 8.60364 32.1549 8.6428 35.294C8.73417 42.5288 8.8469 51.5332 14.9806 55.3081C15.606 55.6927 16.2515 56.0136 16.9065 56.2931C19.4744 67.7713 27.7026 79.4287 37.8104 80.8573C38.5224 80.9564 39.658 81 41.6052 81C43.0292 81 44.7759 80.9752 46.7541 80.9516C49.3101 80.9174 52.2565 80.8785 55.3892 80.8785C58.5231 80.8785 61.4684 80.9186 64.0244 80.9516C66.0013 80.9764 67.7504 81 69.1732 81C71.1205 81 72.2561 80.9564 72.9681 80.8573C81.7611 79.6139 89.1372 70.6296 92.5974 60.7558C101.115 60.6001 108 53.4608 108 44.6923ZM55.3892 5.71983C56.4572 5.71983 57.3282 6.58452 57.3282 7.6474C57.3282 8.71027 56.4584 9.57497 55.3892 9.57497C54.3201 9.57497 53.4503 8.71027 53.4503 7.6474C53.4503 6.58452 54.3201 5.71983 55.3892 5.71983ZM72.3012 76.1846C71.8467 76.2507 70.7942 76.2813 69.1732 76.2813C67.767 76.2813 66.0405 76.2578 64.0885 76.233C61.5123 76.2 58.5445 76.1598 55.3892 76.1598C52.2328 76.1598 49.265 76.1988 46.6912 76.233C44.7368 76.2578 43.0114 76.2813 41.6052 76.2813C39.9843 76.2813 38.9317 76.2507 38.4773 76.1846C30.4769 75.0557 20.8141 62.7365 20.8141 49.135C20.8141 30.1837 36.3247 14.7643 55.3892 14.7643C74.4538 14.7643 89.9643 30.1837 89.9643 49.1361C89.9643 62.7376 80.3015 75.0557 72.3012 76.1846ZM93.9573 55.9109C94.4462 53.613 94.7108 51.3256 94.7108 49.1361C94.7108 43.5316 93.5088 38.2042 91.3633 33.3806C91.679 33.3522 91.9946 33.3334 92.3174 33.3334C98.3479 33.3334 103.255 38.4295 103.255 44.6923C103.253 50.376 99.2106 55.084 93.9573 55.9109Z" fill="#2B3E00" stroke="white" stroke-width="1.5"/>
</svg>
