<svg width="96" height="68" viewBox="0 0 96 68" fill="none" xmlns="http://www.w3.org/2000/svg">
<mask id="path-1-inside-1_3_183" fill="white">
<path fill-rule="evenodd" clip-rule="evenodd" d="M76.3535 51.2794H92.34C93.8792 51.2794 95.127 52.5272 95.1268 54.0663V54.2517C95.1268 61.8331 88.959 68.0009 81.3774 68.0009H13.7492C6.16783 68.0009 0 61.8331 0 54.2517V54.0663C0 52.5272 1.2478 51.2794 2.78692 51.2794H13.1285C11.7045 50.2571 10.3434 49.1043 9.06623 47.8271C2.44803 41.2089 -0.850197 32.3389 0.243577 24.0996C0.409306 22.8515 1.39142 21.8694 2.63959 21.7036C7.05222 21.118 11.6458 21.7934 15.978 23.5627V2.78692C15.978 1.2478 17.2258 0 18.7649 0H76.3611C77.9003 0 79.148 1.2478 79.148 2.78692V10.7761H86.7656C91.3758 10.7761 95.1264 14.5267 95.1264 19.1369V26.0113C95.1264 34.9023 87.9924 42.1582 79.148 42.3564V42.9186C79.148 46.0532 78.107 48.9488 76.3535 51.2794ZM89.5526 19.1369C89.5526 17.6002 88.3023 16.3499 86.7656 16.3499H79.148V36.7811C84.9187 36.5845 89.5526 31.8289 89.5526 26.0113V19.1369ZM73.5742 5.57385H21.5518V26.5519C21.7975 26.7177 22.0416 26.8871 22.2837 27.0607C23.8312 22.2049 26.6682 17.99 30.3836 15.1454C31.3834 14.38 32.7722 14.38 33.7719 15.1454C39.6735 19.6638 43.1967 27.3503 43.1967 35.707C43.1967 41.4468 41.4925 46.9455 38.4883 51.2794H65.2134C69.8236 51.2794 73.5742 47.5287 73.5742 42.9186V5.57385ZM26.9759 31.1511C31.1801 35.5818 33.9417 40.9425 34.9588 46.4201C36.6705 43.3108 37.6229 39.5907 37.6229 35.7068C37.6229 29.949 35.5838 24.6442 32.0808 21.0745C29.5646 23.6537 27.7607 27.1965 26.9759 31.1511ZM5.61063 27.0705C5.54932 32.9544 8.21938 39.0977 13.0075 43.8859C17.6576 48.5358 23.5859 51.1863 29.3132 51.2792H29.8227C29.8831 45.3964 27.2132 39.2546 22.426 34.4674C17.6381 29.6794 11.4901 27.0107 5.61063 27.0705ZM13.7494 62.4271H81.3776C84.9764 62.4271 88.0396 60.0896 89.129 56.8532H5.9982C7.08733 60.0896 10.1505 62.4271 13.7494 62.4271Z"/>
</mask>
<path fill-rule="evenodd" clip-rule="evenodd" d="M76.3535 51.2794H92.34C93.8792 51.2794 95.127 52.5272 95.1268 54.0663V54.2517C95.1268 61.8331 88.959 68.0009 81.3774 68.0009H13.7492C6.16783 68.0009 0 61.8331 0 54.2517V54.0663C0 52.5272 1.2478 51.2794 2.78692 51.2794H13.1285C11.7045 50.2571 10.3434 49.1043 9.06623 47.8271C2.44803 41.2089 -0.850197 32.3389 0.243577 24.0996C0.409306 22.8515 1.39142 21.8694 2.63959 21.7036C7.05222 21.118 11.6458 21.7934 15.978 23.5627V2.78692C15.978 1.2478 17.2258 0 18.7649 0H76.3611C77.9003 0 79.148 1.2478 79.148 2.78692V10.7761H86.7656C91.3758 10.7761 95.1264 14.5267 95.1264 19.1369V26.0113C95.1264 34.9023 87.9924 42.1582 79.148 42.3564V42.9186C79.148 46.0532 78.107 48.9488 76.3535 51.2794ZM89.5526 19.1369C89.5526 17.6002 88.3023 16.3499 86.7656 16.3499H79.148V36.7811C84.9187 36.5845 89.5526 31.8289 89.5526 26.0113V19.1369ZM73.5742 5.57385H21.5518V26.5519C21.7975 26.7177 22.0416 26.8871 22.2837 27.0607C23.8312 22.2049 26.6682 17.99 30.3836 15.1454C31.3834 14.38 32.7722 14.38 33.7719 15.1454C39.6735 19.6638 43.1967 27.3503 43.1967 35.707C43.1967 41.4468 41.4925 46.9455 38.4883 51.2794H65.2134C69.8236 51.2794 73.5742 47.5287 73.5742 42.9186V5.57385ZM26.9759 31.1511C31.1801 35.5818 33.9417 40.9425 34.9588 46.4201C36.6705 43.3108 37.6229 39.5907 37.6229 35.7068C37.6229 29.949 35.5838 24.6442 32.0808 21.0745C29.5646 23.6537 27.7607 27.1965 26.9759 31.1511ZM5.61063 27.0705C5.54932 32.9544 8.21938 39.0977 13.0075 43.8859C17.6576 48.5358 23.5859 51.1863 29.3132 51.2792H29.8227C29.8831 45.3964 27.2132 39.2546 22.426 34.4674C17.6381 29.6794 11.4901 27.0107 5.61063 27.0705ZM13.7494 62.4271H81.3776C84.9764 62.4271 88.0396 60.0896 89.129 56.8532H5.9982C7.08733 60.0896 10.1505 62.4271 13.7494 62.4271Z" fill="#2B3E00"/>
<path d="M76.3535 51.2794L75.1549 50.3776L73.3478 52.7794H76.3535V51.2794ZM95.1268 54.0663L93.6268 54.0661V54.0663H95.1268ZM13.1285 51.2794V52.7794H17.79L14.0032 50.0609L13.1285 51.2794ZM9.06623 47.8271L8.00557 48.8878H8.00557L9.06623 47.8271ZM0.243577 24.0996L-1.24337 23.9022L-1.24338 23.9022L0.243577 24.0996ZM2.63959 21.7036L2.44224 20.2167L2.44216 20.2167L2.63959 21.7036ZM15.978 23.5627L15.4108 24.9513L17.478 25.7956V23.5627H15.978ZM79.148 10.7761H77.648V12.2761H79.148V10.7761ZM79.148 42.3564L79.1144 40.8568L77.648 40.8896V42.3564H79.148ZM79.148 16.3499V14.8499H77.648V16.3499H79.148ZM79.148 36.7811H77.648V38.333L79.1991 38.2802L79.148 36.7811ZM21.5518 5.57385V4.07385H20.0518V5.57385H21.5518ZM73.5742 5.57385H75.0742V4.07385H73.5742V5.57385ZM21.5518 26.5519H20.0518V27.3494L20.7128 27.7954L21.5518 26.5519ZM22.2837 27.0607L21.4098 28.2798L23.0865 29.4816L23.7129 27.5161L22.2837 27.0607ZM30.3836 15.1454L31.2954 16.3365L31.2955 16.3364L30.3836 15.1454ZM33.7719 15.1454L32.86 16.3364L32.8601 16.3365L33.7719 15.1454ZM38.4883 51.2794L37.2555 50.4248L35.6234 52.7794H38.4883V51.2794ZM34.9588 46.4201L33.484 46.6939L34.2498 50.8183L36.2728 47.1435L34.9588 46.4201ZM26.9759 31.1511L25.5046 30.8591L25.3535 31.6205L25.8878 32.1836L26.9759 31.1511ZM32.0808 21.0745L33.1514 20.0239L32.0777 18.9297L31.0071 20.0271L32.0808 21.0745ZM13.0075 43.8859L11.9468 44.9465L11.9469 44.9465L13.0075 43.8859ZM5.61063 27.0705L5.59537 25.5706L4.12603 25.5855L4.11071 27.0549L5.61063 27.0705ZM29.3132 51.2792L29.2889 52.779L29.3011 52.7792H29.3132V51.2792ZM29.8227 51.2792V52.7792H31.3074L31.3226 51.2946L29.8227 51.2792ZM22.426 34.4674L21.3653 35.528H21.3653L22.426 34.4674ZM89.129 56.8532L90.5506 57.3317L91.2165 55.3532H89.129V56.8532ZM5.9982 56.8532V55.3532H3.91075L4.57655 57.3317L5.9982 56.8532ZM92.34 49.7794H76.3535V52.7794H92.34V49.7794ZM96.6268 54.0665C96.6271 51.6988 94.7076 49.7794 92.34 49.7794V52.7794C93.0508 52.7794 93.6269 53.3556 93.6268 54.0661L96.6268 54.0665ZM96.6268 54.2517V54.0663H93.6268V54.2517H96.6268ZM81.3774 69.5009C89.7874 69.5009 96.6268 62.6615 96.6268 54.2517H93.6268C93.6268 61.0047 88.1305 66.5009 81.3774 66.5009V69.5009ZM13.7492 69.5009H81.3774V66.5009H13.7492V69.5009ZM-1.5 54.2517C-1.5 62.6615 5.3394 69.5009 13.7492 69.5009V66.5009C6.99626 66.5009 1.5 61.0047 1.5 54.2517H-1.5ZM-1.5 54.0663V54.2517H1.5V54.0663H-1.5ZM2.78692 49.7794C0.419371 49.7794 -1.5 51.6988 -1.5 54.0663H1.5C1.5 53.3556 2.07623 52.7794 2.78692 52.7794V49.7794ZM13.1285 49.7794H2.78692V52.7794H13.1285V49.7794ZM8.00557 48.8878C9.34035 50.2226 10.7637 51.4282 12.2537 52.4979L14.0032 50.0609C12.6454 49.0861 11.3464 47.986 10.1269 46.7665L8.00557 48.8878ZM-1.24338 23.9022C-2.40694 32.6672 1.10477 41.987 8.00557 48.8878L10.1269 46.7665C3.79129 40.4309 0.70654 32.0106 1.73053 24.297L-1.24338 23.9022ZM2.44216 20.2167C0.5222 20.4716 -0.988447 21.9823 -1.24337 23.9022L1.73053 24.2971C1.80706 23.7207 2.26063 23.2671 2.83702 23.1906L2.44216 20.2167ZM16.5451 22.174C11.9956 20.3159 7.13897 19.5933 2.44224 20.2167L2.83693 23.1906C6.96546 22.6427 11.2961 23.2708 15.4108 24.9513L16.5451 22.174ZM14.478 2.78692V23.5627H17.478V2.78692H14.478ZM18.7649 -1.5C16.3974 -1.5 14.478 0.419371 14.478 2.78692H17.478C17.478 2.07623 18.0542 1.5 18.7649 1.5V-1.5ZM76.3611 -1.5H18.7649V1.5H76.3611V-1.5ZM80.648 2.78692C80.648 0.419374 78.7287 -1.5 76.3611 -1.5V1.5C77.0718 1.5 77.648 2.07622 77.648 2.78692H80.648ZM80.648 10.7761V2.78692H77.648V10.7761H80.648ZM86.7656 9.2761H79.148V12.2761H86.7656V9.2761ZM96.6264 19.1369C96.6264 13.6983 92.2042 9.2761 86.7656 9.2761V12.2761C90.5473 12.2761 93.6264 15.3552 93.6264 19.1369H96.6264ZM96.6264 26.0113V19.1369H93.6264V26.0113H96.6264ZM79.1817 43.856C88.8391 43.6396 96.6264 35.7197 96.6264 26.0113H93.6264C93.6264 34.0849 87.1458 40.6768 79.1144 40.8568L79.1817 43.856ZM80.648 42.9186V42.3564H77.648V42.9186H80.648ZM77.5521 52.1812C79.4937 49.6007 80.648 46.3908 80.648 42.9186H77.648C77.648 45.7155 76.7204 48.2969 75.1549 50.3776L77.5521 52.1812ZM86.7656 17.8499C87.4739 17.8499 88.0526 18.4286 88.0526 19.1369H91.0526C91.0526 16.7717 89.1308 14.8499 86.7656 14.8499V17.8499ZM79.148 17.8499H86.7656V14.8499H79.148V17.8499ZM80.648 36.7811V16.3499H77.648V36.7811H80.648ZM88.0526 26.0113C88.0526 31.0173 84.0626 35.1128 79.097 35.2819L79.1991 38.2802C85.7748 38.0562 91.0526 32.6405 91.0526 26.0113H88.0526ZM88.0526 19.1369V26.0113H91.0526V19.1369H88.0526ZM21.5518 7.07385H73.5742V4.07385H21.5518V7.07385ZM23.0518 26.5519V5.57385H20.0518V26.5519H23.0518ZM23.1576 25.8415C22.9032 25.6592 22.6474 25.4816 22.3908 25.3085L20.7128 27.7954C20.9475 27.9537 21.18 28.1151 21.4098 28.2798L23.1576 25.8415ZM29.4717 13.9544C25.4851 17.0067 22.484 21.4922 20.8545 26.6052L23.7129 27.5161C25.1784 22.9176 27.8514 18.9733 31.2954 16.3365L29.4717 13.9544ZM34.6838 13.9544C33.1459 12.777 31.0096 12.777 29.4717 13.9544L31.2955 16.3364C31.7571 15.983 32.3984 15.983 32.86 16.3364L34.6838 13.9544ZM44.6967 35.707C44.6967 26.9497 41.0058 18.7946 34.6838 13.9544L32.8601 16.3365C38.3413 20.5329 41.6967 27.7509 41.6967 35.707H44.6967ZM39.7211 52.1339C42.9082 47.5361 44.6967 41.736 44.6967 35.707H41.6967C41.6967 41.1575 40.0767 46.355 37.2555 50.4248L39.7211 52.1339ZM65.2134 49.7794H38.4883V52.7794H65.2134V49.7794ZM72.0742 42.9186C72.0742 46.7003 68.9951 49.7794 65.2134 49.7794V52.7794C70.652 52.7794 75.0742 48.3572 75.0742 42.9186H72.0742ZM72.0742 5.57385V42.9186H75.0742V5.57385H72.0742ZM36.4336 46.1463C35.3603 40.366 32.4549 34.746 28.064 30.1186L25.8878 32.1836C29.9053 36.4175 32.5232 41.519 33.484 46.6939L36.4336 46.1463ZM36.1229 35.7068C36.1229 39.3505 35.2285 42.82 33.6448 45.6967L36.2728 47.1435C38.1126 43.8017 39.1229 39.8308 39.1229 35.7068H36.1229ZM31.0102 22.1251C34.2019 25.3776 36.1229 30.2872 36.1229 35.7068H39.1229C39.1229 29.6109 36.9657 23.9109 33.1514 20.0239L31.0102 22.1251ZM28.4472 31.4431C29.1817 27.742 30.8625 24.4713 33.1545 22.122L31.0071 20.0271C28.2667 22.8361 26.3397 26.651 25.5046 30.8591L28.4472 31.4431ZM14.0682 42.8252C9.52448 38.2815 7.05401 32.5127 7.11055 27.0861L4.11071 27.0549C4.04464 33.3962 6.91428 39.914 11.9468 44.9465L14.0682 42.8252ZM29.3376 49.7794C24.0488 49.6936 18.4797 47.2366 14.0681 42.8252L11.9469 44.9465C16.8354 49.8349 23.123 52.679 29.2889 52.779L29.3376 49.7794ZM29.8227 49.7792H29.3132V52.7792H29.8227V49.7792ZM21.3653 35.528C25.9081 40.0708 28.3784 45.8382 28.3228 51.2638L31.3226 51.2946C31.3877 44.9545 28.5182 38.4383 23.4867 33.4067L21.3653 35.528ZM5.6259 28.5704C11.0486 28.5152 16.8222 30.9848 21.3653 35.528L23.4867 33.4067C18.454 28.374 11.9316 25.5061 5.59537 25.5706L5.6259 28.5704ZM81.3776 60.9271H13.7494V63.9271H81.3776V60.9271ZM87.7073 56.3747C86.8167 59.0207 84.3115 60.9271 81.3776 60.9271V63.9271C85.6413 63.9271 89.2626 61.1585 90.5506 57.3317L87.7073 56.3747ZM5.9982 58.3532H89.129V55.3532H5.9982V58.3532ZM13.7494 60.9271C10.8154 60.9271 8.31028 59.0207 7.41986 56.3748L4.57655 57.3317C5.86438 61.1585 9.48564 63.9271 13.7494 63.9271V60.9271Z" fill="white" mask="url(#path-1-inside-1_3_183)"/>
</svg>
