<svg width="60" height="60" viewBox="0 0 60 60" fill="none" xmlns="http://www.w3.org/2000/svg">
<path d="M35.5972 15.2334L39.5713 18.1735C40.0186 18.5044 39.7925 19.2367 39.2269 19.2402L37.9798 19.2478C37.9786 19.2478 37.9774 19.2478 37.9762 19.2478C37.6554 19.2478 37.3935 18.9881 37.3914 18.6673C37.3856 17.7289 36.6208 16.9709 35.6819 16.9786C34.7435 16.9844 33.9874 17.7498 33.9931 18.6883C34.0043 20.5013 35.2321 22.0265 36.8957 22.4962V22.5784C36.8957 23.5169 37.6565 24.2777 38.5948 24.2777C39.5331 24.2777 40.2939 23.5169 40.2939 22.5784V22.4927C40.9559 22.3092 41.562 21.9562 42.0577 21.4541C42.8056 20.6967 43.2136 19.6935 43.2063 18.6265V18.6159C43.1978 17.3696 42.5944 16.1828 41.5923 15.4415L37.6183 12.5015C37.167 12.1676 37.4041 11.448 37.9663 11.448H39.2154C39.5379 11.448 39.8002 11.71 39.8002 12.0321C39.8002 12.9705 40.561 13.7313 41.4993 13.7313C42.4376 13.7313 43.1984 12.9705 43.1984 12.0321C43.1984 10.21 41.9675 8.67069 40.2938 8.19922V8.11743C40.2938 7.17901 39.533 6.41821 38.5947 6.41821C37.6564 6.41821 36.8956 7.17901 36.8956 8.11743V8.19695C35.2179 8.66582 33.9831 10.207 33.9831 12.0321C33.9833 13.2889 34.5866 14.4856 35.5972 15.2334Z" fill="#2B3E00" stroke="white" stroke-width="1.5"/>
<path d="M38.5949 29.6958C46.5085 29.6958 52.9465 23.2594 52.9465 15.3478C52.9465 7.43629 46.5084 1 38.5949 1C30.6814 1 24.2433 7.43641 24.2433 15.348C24.2433 23.2595 30.6814 29.6958 38.5949 29.6958ZM38.5949 4.39843C44.6346 4.39843 49.5482 9.31042 49.5482 15.348C49.5482 21.3855 44.6346 26.2975 38.5949 26.2975C32.5553 26.2975 27.6416 21.3855 27.6416 15.348C27.6416 9.31042 32.5553 4.39843 38.5949 4.39843Z" fill="#2B3E00" stroke="white" stroke-width="1.5"/>
<path d="M57.8315 33.5329C55.9937 31.1669 52.6759 30.7219 50.2877 32.3787L43.8227 36.7039C42.9242 35.0311 41.1577 33.8908 39.1294 33.8908H34.5176C32.1897 31.7074 29.0818 30.4678 25.8762 30.4678C23.4702 30.4678 21.1297 31.1475 19.108 32.4334C17.2863 33.5922 15.7962 35.1928 14.7723 37.0826L13.9066 37.612L13.6823 36.956C13.3787 36.0682 12.4131 35.5943 11.5252 35.8977L2.15015 39.1012C1.26259 39.4044 0.788172 40.3708 1.09177 41.2588L6.76409 57.8502C7.0678 58.7386 8.03375 59.2116 8.92119 58.9085L18.2962 55.7052C19.1335 55.4191 19.682 54.5052 19.3358 53.4926L34.212 53.0321C38.2633 53.0267 42.1484 51.7825 45.4485 49.4336L56.6669 41.4539C59.2389 39.6232 59.7698 36.0267 57.8315 33.5329ZM9.43005 55.1432L4.85712 41.7676L11.0163 39.663C11.6798 41.6038 14.9045 51.0357 15.5893 53.0388L9.43005 55.1432ZM54.6969 38.6847L43.4784 46.6645C40.7493 48.6069 37.5357 49.6336 34.185 49.6336C34.1676 49.6336 34.1499 49.6338 34.1325 49.6344L18.1855 50.1279L15.0329 40.9065L16.9491 39.7347C16.9495 39.7345 16.9499 39.7342 16.9503 39.7338C17.2324 39.5612 17.453 39.3078 17.5875 39.0335C19.1514 35.8461 22.3274 33.866 25.8762 33.866C28.4407 33.866 30.8225 34.8926 32.583 36.7568C32.9072 37.1003 33.373 37.2889 33.8183 37.2889H39.1294C40.1911 37.2889 41.0547 38.1521 41.0547 39.2132C41.0547 40.2632 40.2055 41.1375 39.1294 41.1375H29.5425C28.6041 41.1375 27.8434 41.8983 27.8434 42.8367C27.8434 43.7751 28.6042 44.5359 29.5425 44.5359H39.1294C40.5526 44.5359 41.8896 43.9818 42.8932 42.9767C43.5953 42.2748 44.0764 41.4114 44.3034 40.4707L52.1902 35.1944C52.1997 35.1881 52.2091 35.1816 52.2185 35.1751C53.1485 34.5254 54.4368 34.7022 55.1481 35.6179C55.8981 36.583 55.693 37.9757 54.6969 38.6847Z" fill="#2B3E00" stroke="white" stroke-width="1.5"/>
</svg>
