<svg width="52" height="34" viewBox="0 0 52 34" fill="none" xmlns="http://www.w3.org/2000/svg">
<path d="M50.5382 7.7627H1.43651V14.7811H50.5382V7.7627Z" fill="white"/>
<path fill-rule="evenodd" clip-rule="evenodd" d="M1.29447 1.13689C1.26296 1.16652 1.23191 1.19663 1.20133 1.2272L1.20225 1.22629C1.23253 1.19603 1.26327 1.16623 1.29447 1.13689C1.29447 1.13689 1.29447 1.13689 1.29447 1.13689ZM48.7051 3.29419L49.0587 2.94064C48.7409 2.62287 48.2998 2.42422 47.8137 2.42422H4.15979C3.85606 2.42422 3.56938 2.50198 3.31946 2.63809L3.26647 2.58509L2.91286 2.93979C2.59553 3.25809 2.39837 3.69983 2.39837 4.18493V29.8796C2.39837 30.2853 2.53798 30.6604 2.76905 30.9579V30.9802L2.9155 31.1267C3.23194 31.4431 3.67397 31.641 4.15979 31.641H47.8137C48.2993 31.641 48.7411 31.4439 49.0595 31.1265L49.4134 30.7737L49.3609 30.7209C49.4974 30.471 49.5758 30.184 49.5758 29.8796V4.18493C49.5758 3.69948 49.3759 3.25791 49.0587 2.94064L48.7051 3.29419ZM2.99732 3.6941C2.99373 3.70262 2.99023 3.71119 2.98682 3.7198L2.99732 3.6941ZM48.6802 30.7979C48.6598 30.8171 48.6386 30.8357 48.6169 30.8536C48.6297 30.8431 48.6423 30.8323 48.6546 30.8213C48.6633 30.8136 48.6718 30.8058 48.6802 30.7979ZM1.55628 1.58216L1.64196 1.49648C2.30113 0.878941 3.1871 0.5 4.15975 0.5H47.8136C48.8294 0.5 49.7523 0.913155 50.4192 1.58006C51.0864 2.24723 51.5 3.16878 51.5 4.18494V29.8796C51.5 30.8957 51.0864 31.8173 50.4192 32.4845C49.7521 33.1516 48.8299 33.5652 47.8136 33.5652H4.15975C3.1436 33.5652 2.22204 33.1516 1.55488 32.4845C0.887718 31.8173 0.474121 30.8957 0.474121 29.8796V4.18494C0.474121 3.17262 0.887471 2.25097 1.55628 1.58216Z" fill="white"/>
</svg>
