<svg width="111" height="110" viewBox="0 0 111 110" fill="none" xmlns="http://www.w3.org/2000/svg">
<path d="M2.25024 74.7081L4.19555 75.3501C13.5199 78.4238 22.2198 83.1129 29.8903 89.1994L45.2855 101.404C45.3898 101.476 45.502 101.537 45.6199 101.584L45.6092 101.607L51.8708 104.712V107.184C51.8708 108.187 52.6841 109 53.6872 109C54.6904 109 55.5036 108.187 55.5036 107.184V82.8999L62.0432 78.0394L62.0239 78.0147C62.0982 77.9722 62.1696 77.9248 62.2382 77.8724C73.7414 66.5106 88.723 59.2504 104.836 57.2273L108.409 56.7848C109.405 56.661 110.111 55.7612 109.986 54.7744C109.9 54.097 109.434 53.5257 108.783 53.2999L93.6717 48.06C81.3619 43.7907 67.8898 50.2184 63.5813 62.4169C63.5012 62.6427 63.4248 62.8706 63.3519 63.0993L59.397 75.5073L55.5043 78.3998V52.4879C55.5 49.0348 57.2431 45.8089 60.1457 43.8969L60.1257 43.8678C60.2307 43.8126 60.33 43.7468 60.4215 43.6718C67.7183 36.4392 71.5303 26.45 70.8888 16.2429L70.0365 2.68666C69.983 1.83364 69.3322 1.13636 68.4784 1.01602C67.6262 0.903464 66.8096 1.39333 66.5146 2.19325L60.6394 18.4876C58.4419 24.5734 57.3188 30.9898 57.321 37.4543V41.5098C53.8862 44.1361 51.8737 48.191 51.8708 52.49V56.0557L50.0234 54.2251C49.7141 40.8402 40.9541 29.0898 28.1343 24.8615L16.1146 20.9015C15.1623 20.5858 14.1335 21.0948 13.8156 22.0377C13.7106 22.3478 13.6935 22.6805 13.7656 22.9998L15.7638 31.932C18.9643 46.5048 32.0163 56.8726 47.0665 56.799H47.4859L51.8716 61.1441V100.687L48.2381 98.887V95.1847C48.2374 79.6265 35.509 67.0147 19.808 67.0154C16.7525 67.0154 13.7163 67.5038 10.8173 68.4616L2.25024 71.2911C1.29652 71.6018 0.777868 72.6191 1.09149 73.5634C1.27152 74.1064 1.70158 74.5325 2.25024 74.7116V74.7081ZM66.816 64.1795C69.4457 55.9524 77.1405 50.3529 85.8497 50.3281C88.1058 50.3317 90.3447 50.7118 92.4729 51.453L100.496 54.2364C87.3292 56.5774 75.0016 62.2682 64.7214 70.7516L66.816 64.1795ZM60.9537 37.4543C60.9516 31.4032 62.001 25.3967 64.0563 19.6988L66.9632 11.6493L67.2661 16.468C67.739 24.0177 65.503 31.4903 60.9537 37.564V37.4543ZM19.3165 31.1413L18.0084 25.311L26.9841 28.2757C36.9278 31.5554 44.2368 39.9992 45.9942 50.2361L32.6293 36.9928C31.9247 36.2946 30.7891 36.2945 30.0844 36.9926C29.3703 37.7 29.3703 38.8539 30.0842 39.5613L43.6424 52.9962C31.652 51.6137 21.8755 42.8308 19.3165 31.1413ZM11.9703 71.8765C24.9602 67.5845 39.001 74.5396 43.3317 87.4106C44.1754 89.9172 44.6054 92.5428 44.6047 95.1847V96.2543L32.1613 86.3919C25.0252 80.7273 17.0283 76.2187 8.46836 73.0339L11.9703 71.8765Z" fill="#2B3E00" stroke="white" stroke-width="1.5"/>
</svg>
