<svg width="27" height="22" viewBox="0 0 27 22" fill="none" xmlns="http://www.w3.org/2000/svg">
<path d="M26.9999 7.85714H22.4152L17.5985 0.381348C17.3595 0.00999118 16.8412 -0.111255 16.4408 0.112035C16.0411 0.335325 15.9118 0.817929 16.1516 1.19008L20.4473 7.85714H6.55274L10.8484 1.19003C11.0882 0.817876 10.9589 0.335272 10.5592 0.111982C10.1579 -0.111308 9.64133 0.00993831 9.40155 0.381295L4.58483 7.85709H0V9.42853H1.83129L3.97484 20.0764C4.19894 21.1913 5.24538 22 6.46327 22H20.5367C21.7546 22 22.801 21.1913 23.0243 20.0771L25.1686 9.42853H27C26.9999 9.42853 26.9999 7.85714 26.9999 7.85714ZM21.3656 19.7879C21.2915 20.1592 20.9429 20.4286 20.5367 20.4286H6.46327C6.05704 20.4286 5.70853 20.1593 5.63354 19.7872L3.54765 9.42853H23.4523L21.3656 19.7879Z" fill="white"/>
</svg>
