<svg width="21" height="22" viewBox="0 0 21 22" fill="none" xmlns="http://www.w3.org/2000/svg">
<path d="M20.6498 1.85083C20.6507 1.83819 20.6514 1.82548 20.6518 1.81264C20.6663 1.36108 20.3292 0.982286 19.8981 0.96559C19.8032 0.961939 17.5402 0.882276 14.6241 1.46252C12.9047 1.80468 11.3133 2.30719 9.89427 2.95606C8.09736 3.77771 6.57137 4.83836 5.35869 6.10854C3.43755 8.12071 2.47033 10.2831 2.484 12.5354C2.49618 14.5503 3.28716 16.1179 3.75973 17.0545C3.80704 17.1482 3.85964 17.2525 3.90499 17.3459L0.833844 20.5625C0.528042 20.8828 0.528042 21.4022 0.833844 21.7225C0.986785 21.8827 1.18719 21.9628 1.38764 21.9628C1.58809 21.9628 1.78854 21.8827 1.94144 21.7225L14.5888 8.47587C14.8946 8.15557 14.8946 7.63625 14.5888 7.31591C14.283 6.99558 13.7871 6.99558 13.4813 7.31591L5.06526 16.1307C4.6373 15.2771 4.05938 14.0427 4.05022 12.525C4.03917 10.7023 4.82941 8.98289 6.46621 7.26853C8.9057 4.71341 12.3887 3.58118 14.8809 3.0813C16.6606 2.72433 18.2054 2.62957 19.0794 2.60734C19.0243 4.91896 18.5216 11.7466 14.6295 15.8233C12.9927 17.5376 11.3527 18.3656 9.61079 18.3537C9.13791 18.3506 8.651 18.2814 8.16367 18.1481C7.74531 18.0338 7.31735 18.2961 7.20812 18.7345C7.09884 19.1728 7.34946 19.6209 7.76794 19.7353C8.38123 19.9031 8.99797 19.9902 9.60096 19.9941C9.61588 19.9942 9.63084 19.9943 9.64584 19.9943C11.7801 19.9943 13.8292 18.9814 15.7371 16.9832C16.9498 15.7131 17.9624 14.1148 18.7469 12.2327C19.3664 10.7465 19.8462 9.0797 20.1729 7.27875C20.6715 4.52934 20.6596 2.33414 20.6498 1.85083Z" fill="#2B3E00"/>
</svg>
