<svg width="21" height="20" viewBox="0 0 21 20" fill="none" xmlns="http://www.w3.org/2000/svg">
<path d="M10.2959 0.140625C7.61989 0.140625 7.3382 0.140625 6.21144 0.140625C5.22552 0.140625 4.38046 0.422315 3.81708 0.56316C3.11285 0.84485 2.69031 1.12654 2.12693 1.68992C1.56355 2.2533 1.28187 2.81668 1.00018 3.38006C0.718486 3.94344 0.577637 4.78851 0.577637 5.77443C0.577637 6.76034 0.577637 7.18288 0.577637 9.85894C0.577637 12.535 0.577637 12.8167 0.577637 13.9434C0.577637 14.9294 0.859331 15.7744 1.00018 16.3378C1.28187 17.042 1.56355 17.4646 2.12693 18.0279C2.69031 18.5913 3.2537 18.873 3.81708 19.1547C4.38046 19.4364 5.22552 19.5772 6.21144 19.5772C7.19736 19.5772 7.61989 19.5772 10.2959 19.5772C12.972 19.5772 13.2537 19.5772 14.3805 19.5772C15.3664 19.5772 16.2114 19.2956 16.7748 19.1547C17.479 18.873 17.9016 18.5913 18.465 18.0279C19.0283 17.4646 19.31 16.9012 19.5917 16.3378C19.8734 15.7744 20.0143 14.9294 20.0143 13.9434C20.0143 12.9575 20.0143 12.535 20.0143 9.85894C20.0143 7.18288 20.0143 6.90119 20.0143 5.77443C20.0143 4.78851 19.7326 3.94344 19.5917 3.38006C19.31 2.67584 19.0283 2.2533 18.465 1.68992C17.9016 1.12654 17.3382 0.84485 16.7748 0.56316C16.2114 0.28147 15.3664 0.140625 14.3805 0.140625C13.3945 0.140625 12.972 0.140625 10.2959 0.140625ZM9.45088 1.97161C9.73257 1.97161 10.0143 1.97161 10.2959 1.97161C12.972 1.97161 13.2537 1.97161 14.2396 1.97161C15.2255 1.97161 15.6481 2.11246 16.0706 2.2533C16.4931 2.39415 16.9157 2.67584 17.1974 2.95753C17.6199 3.38006 17.7607 3.66175 18.0424 4.22513C18.1833 4.50682 18.3241 5.0702 18.3241 6.05612C18.3241 7.04203 18.3241 7.46457 18.3241 9.99978C18.3241 12.535 18.3241 12.9575 18.3241 13.9434C18.3241 14.9294 18.1833 15.3519 18.0424 15.7744C17.9016 16.197 17.6199 16.6195 17.3382 16.9012C17.0565 17.1829 16.634 17.4646 16.2114 17.6054C15.9297 17.7463 15.3664 17.8871 14.3805 17.8871C13.3945 17.8871 12.972 17.8871 10.4368 17.8871C7.76074 17.8871 7.47905 17.8871 6.49314 17.8871C5.50722 17.8871 5.08468 17.7463 4.66215 17.6054C4.23961 17.4646 3.81707 17.1829 3.53538 16.9012C3.25369 16.6195 2.972 16.197 2.83116 15.7744C2.69031 15.4927 2.54947 14.9294 2.54947 13.9434C2.54947 12.9575 2.54947 12.535 2.54947 9.99978C2.54947 7.46457 2.54947 7.04203 2.54947 6.05612C2.54947 5.0702 2.69031 4.64767 2.83116 4.22513C2.972 3.8026 3.25369 3.38006 3.53538 3.09837C3.81707 2.81668 4.23961 2.53499 4.66215 2.39415C4.94384 2.2533 5.50722 2.11246 6.49314 2.11246C7.19736 1.97161 7.61989 1.97161 9.45088 1.97161ZM15.5072 3.52091C14.803 3.52091 14.3805 4.08429 14.3805 4.64767C14.3805 5.35189 14.9438 5.77443 15.5072 5.77443C16.0706 5.77443 16.634 5.21105 16.634 4.64767C16.634 4.08429 16.2114 3.52091 15.5072 3.52091ZM10.2959 4.92936C7.47905 4.92936 5.22553 7.18288 5.22553 9.99978C5.22553 12.8167 7.47905 15.0702 10.2959 15.0702C13.1129 15.0702 15.3664 12.8167 15.3664 9.99978C15.3664 7.18288 13.1129 4.92936 10.2959 4.92936ZM10.2959 6.76034C12.1269 6.76034 13.5354 8.16879 13.5354 9.99978C13.5354 11.8308 12.1269 13.2392 10.2959 13.2392C8.46496 13.2392 7.05651 11.8308 7.05651 9.99978C7.05651 8.16879 8.46496 6.76034 10.2959 6.76034Z" fill="#93A603"/>
</svg>
