<svg width="23" height="20" viewBox="0 0 23 20" fill="none" xmlns="http://www.w3.org/2000/svg">
<path fill-rule="evenodd" clip-rule="evenodd" d="M22.8169 2.95789C21.9718 3.38043 21.1268 3.52127 20.1408 3.66212C21.1268 3.09874 21.831 2.11282 22.1127 1.1269C21.2676 1.69029 20.2817 2.11282 19.1549 2.25367C18.3099 1.4086 17.0423 0.845215 15.7746 0.845215C13.2394 0.845215 11.1268 2.95789 11.1268 5.4931C11.1268 5.91564 11.1268 6.19733 11.2676 6.61986C7.46479 6.47902 3.94366 4.50719 1.69014 1.83113C1.2676 2.25367 1.12676 3.09874 1.12676 3.94381C1.12676 5.63395 1.83098 7.0424 3.09859 7.88747C2.39436 7.88747 1.69014 7.60578 0.985914 7.32409C0.985914 9.57761 2.53521 11.4086 4.64789 11.8311C4.22535 11.972 3.80282 11.972 3.38028 11.972C3.09859 11.972 2.8169 11.972 2.53521 11.8311C3.09859 13.6621 4.78873 15.0706 6.90141 15.0706C5.35211 16.3382 3.38028 17.0424 1.12676 17.0424C0.704224 17.0424 0.422535 17.0424 0 17.0424C2.11268 18.31 4.50704 19.1551 7.1831 19.1551C15.7746 19.1551 20.4225 12.1128 20.4225 5.91564C20.4225 5.77479 20.4225 5.4931 20.4225 5.35226C21.4085 4.64803 22.1127 3.94381 22.8169 2.95789Z" fill="#93A603"/>
</svg>
