<svg width="66" height="50" viewBox="0 0 66 50" fill="none" xmlns="http://www.w3.org/2000/svg">
<path d="M65 27.2154C65 21.8963 60.7521 17.5688 55.5305 17.5688C54.8571 17.5688 54.2029 17.6509 53.5703 17.7904C50.0066 11.9631 43.9518 7.78282 36.8732 6.70272C37.1261 6.18249 37.2715 5.6021 37.2715 4.98773C37.2715 2.7886 35.4618 1 33.235 1C31.009 1 29.1985 2.7886 29.1985 4.98773C29.1985 5.6021 29.3439 6.18249 29.5961 6.70272C18.2266 8.43754 9.49293 18.1705 9.49364 29.8803C9.49364 30.0586 9.50009 30.2391 9.50582 30.4189C7.9683 28.505 7.91671 24.6921 7.87659 21.5403C7.83718 18.4507 7.80638 16.0103 6.59699 14.6824C4.28999 12.1499 1.99301 12.4231 1 12.9851L2.42146 15.4433C2.42791 15.4398 3.23607 15.2267 4.46624 16.5772C4.95415 17.1123 4.9871 19.6929 5.01075 21.5764C5.06591 25.9173 5.13398 31.3199 8.83736 33.5849C9.21494 33.8156 9.60469 34.0081 10.0002 34.1759C11.5506 41.0628 16.5185 48.0572 22.6214 48.9144C23.0512 48.9738 23.7369 49 24.9126 49C25.7723 49 26.827 48.9851 28.0213 48.971C29.5646 48.9505 31.3435 48.9271 33.235 48.9271C35.1272 48.9271 36.9054 48.9512 38.4487 48.971C39.6423 48.9858 40.6984 49 41.5574 49C42.7331 49 43.4188 48.9738 43.8487 48.9144C49.1576 48.1683 53.6111 42.7777 55.7003 36.8535C60.8431 36.7601 65 32.4765 65 27.2154ZM33.235 3.8319C33.8798 3.8319 34.4057 4.35071 34.4057 4.98844C34.4057 5.62616 33.8805 6.14498 33.235 6.14498C32.5895 6.14498 32.0643 5.62616 32.0643 4.98844C32.0643 4.35071 32.5895 3.8319 33.235 3.8319ZM43.446 46.1108C43.1716 46.1504 42.5361 46.1688 41.5574 46.1688C40.7084 46.1688 39.666 46.1547 38.4874 46.1398C36.9319 46.12 35.1401 46.0959 33.235 46.0959C31.3292 46.0959 29.5373 46.1193 27.9833 46.1398C26.8033 46.1547 25.7616 46.1688 24.9126 46.1688C23.9339 46.1688 23.2984 46.1504 23.024 46.1108C18.1936 45.4334 12.3595 38.0419 12.3595 29.881C12.3595 18.5102 21.7243 9.25858 33.235 9.25858C44.7457 9.25858 54.1105 18.5102 54.1105 29.8817C54.1105 38.0426 48.2764 45.4334 43.446 46.1108ZM56.5214 33.9466C56.8166 32.5678 56.9764 31.1954 56.9764 29.8817C56.9764 26.5189 56.2506 23.3225 54.9552 20.4283C55.1458 20.4113 55.3364 20.4 55.5313 20.4C59.1723 20.4 62.1349 23.4577 62.1349 27.2154C62.1342 30.6256 59.6932 33.4504 56.5214 33.9466Z" fill="#2B3E00" stroke="white" stroke-width="0.5"/>
</svg>
