<svg width="34" height="32" viewBox="0 0 34 32" fill="none" xmlns="http://www.w3.org/2000/svg">
<path d="M33.6979 1.35733C33.6995 1.33808 33.7006 1.3187 33.7013 1.29914C33.7251 0.61114 33.1703 0.0340141 32.4606 0.00857654C32.3045 0.00301404 28.5794 -0.118361 23.7795 0.765703C20.9492 1.28702 18.3297 2.05264 15.994 3.04127C13.0362 4.29315 10.5243 5.90915 8.52823 7.8444C5.36597 10.9102 3.77387 14.2047 3.79637 17.6364C3.81642 20.7064 5.11841 23.0947 5.89628 24.5217C5.97415 24.6645 6.06073 24.8234 6.13539 24.9657L1.08016 29.8666C0.576796 30.3546 0.576796 31.1459 1.08016 31.6339C1.33191 31.8779 1.66179 32 1.99173 32C2.32168 32 2.65162 31.8779 2.9033 31.6339L23.7213 11.4513C24.2247 10.9633 24.2247 10.172 23.7213 9.68397C23.2179 9.1959 22.4017 9.1959 21.8983 9.68397L8.04524 23.1142C7.3408 21.8137 6.38952 19.933 6.37443 17.6205C6.35625 14.8435 7.65702 12.2238 10.3512 9.61178C14.3667 5.71877 20.0998 3.99371 24.2022 3.23208C27.1316 2.68821 29.6744 2.54383 31.1131 2.50996C31.0224 6.03196 30.195 16.4346 23.7884 22.6458C21.0941 25.2577 18.3947 26.5193 15.5273 26.5012C14.749 26.4964 13.9475 26.391 13.1453 26.1879C12.4567 26.0138 11.7523 26.4135 11.5725 27.0814C11.3926 27.7491 11.8051 28.4319 12.494 28.6062C13.5035 28.8619 14.5186 28.9946 15.5112 29.0006C15.5357 29.0007 15.5604 29.0008 15.585 29.0008C19.0981 29.0008 22.471 27.4576 25.6114 24.4131C27.6076 22.4779 29.2744 20.0428 30.5658 17.1753C31.5855 14.9108 32.3752 12.3713 32.913 9.62734C33.7337 5.43834 33.7142 2.0937 33.6979 1.35733Z" fill="#2B3E00"/>
</svg>
