<svg width="26" height="25" viewBox="0 0 26 25" fill="none" xmlns="http://www.w3.org/2000/svg">
<path d="M25.6991 1.06041C25.7003 1.04537 25.7011 1.03024 25.7017 1.01495C25.7196 0.477453 25.2993 0.0265735 24.7617 0.00670042C24.6434 0.00235472 21.8214 -0.0924697 18.1851 0.598205C16.0409 1.00548 14.0565 1.60363 12.287 2.37599C10.0462 3.35402 8.14332 4.61652 6.63112 6.12844C4.23546 8.52356 3.02933 11.0974 3.04638 13.7784C3.06157 16.1768 4.04792 18.0427 4.63721 19.1576C4.69621 19.2691 4.7618 19.3933 4.81836 19.5044L0.988638 23.3333C0.607303 23.7145 0.607303 24.3327 0.988638 24.714C1.17936 24.9046 1.42926 25 1.67922 25C1.92918 25 2.17914 24.9046 2.36981 24.714L18.141 8.94631C18.5224 8.56506 18.5224 7.9469 18.141 7.5656C17.7597 7.1843 17.1413 7.1843 16.76 7.5656L6.26521 18.0579C5.73155 17.042 5.01088 15.5726 4.99945 13.766C4.98568 11.5965 5.97111 9.54983 8.01219 7.5092C11.0542 4.46779 15.3975 3.12008 18.5053 2.52506C20.7246 2.10016 22.651 1.98737 23.7409 1.9609C23.6722 4.71247 23.0453 12.8395 18.1918 17.692C16.1507 19.7326 14.1057 20.7182 11.9335 20.7041C11.3438 20.7003 10.7366 20.618 10.1289 20.4593C9.60723 20.3233 9.07356 20.6355 8.93735 21.1573C8.80109 21.679 9.11361 22.2124 9.63545 22.3486C10.4002 22.5483 11.1693 22.652 11.9212 22.6567C11.9398 22.6568 11.9585 22.6569 11.9772 22.6569C14.6386 22.6569 17.1938 21.4512 19.5729 19.0727C21.0852 17.5609 22.3479 15.6584 23.3262 13.4182C24.0988 11.6491 24.697 9.66506 25.1044 7.52136C25.7262 4.2487 25.7114 1.63571 25.6991 1.06041Z" fill="#2B3E00"/>
</svg>
